<?xml version="1.0" standalone="no"?>
<!DOCTYPE svg PUBLIC "-//W3C//DTD SVG 20010904//EN"
 "http://www.w3.org/TR/2001/REC-SVG-20010904/DTD/svg10.dtd">
<svg version="1.0" xmlns="http://www.w3.org/2000/svg"
 width="83.000000pt" height="83.000000pt" viewBox="0 0 83.000000 83.000000"
 preserveAspectRatio="xMidYMid meet">

<g transform="translate(0.000000,83.000000) scale(0.100000,-0.100000)"
fill="#000000" stroke="none">
<path d="M381 741 c-6 -11 -11 -29 -11 -41 0 -17 -13 -27 -59 -47 -75 -32 -78
-46 -35 -160 19 -48 34 -96 34 -106 0 -9 -12 -45 -26 -80 -30 -71 -37 -183
-13 -198 8 -5 40 -9 72 -9 l57 0 0 -50 c0 -43 3 -50 20 -50 17 0 20 7 20 50
l0 50 65 0 c53 0 66 3 75 19 17 33 11 97 -16 168 -38 101 -38 101 1 202 22 57
34 103 31 116 -4 16 -23 30 -61 46 -43 18 -57 29 -61 48 -9 44 -20 56 -52 59
-22 2 -34 -2 -41 -17z"/>
</g>
</svg>
